<mxfile host="Electron" agent="Mozilla/5.0 (Windows NT 10.0; Win64; x64) AppleWebKit/537.36 (KHTML, like Gecko) draw.io/26.2.2 Chrome/134.0.6998.178 Electron/35.1.2 Safari/537.36" version="26.2.2">
  <diagram name="Page-1" id="Fruf3kEZcReUQYjlZcKd">
    <mxGraphModel dx="1428" dy="2010" grid="1" gridSize="10" guides="1" tooltips="1" connect="1" arrows="1" fold="1" page="1" pageScale="1" pageWidth="827" pageHeight="1169" math="0" shadow="0">
      <root>
        <mxCell id="0" />
        <mxCell id="1" parent="0" />
        <mxCell id="p2FJRCKIppxcUD3lW_PI-14" value="Passanger" style="swimlane;childLayout=stackLayout;horizontal=1;startSize=50;horizontalStack=0;rounded=1;fontSize=14;fontStyle=0;strokeWidth=2;resizeParent=0;resizeLast=1;shadow=0;dashed=0;align=center;arcSize=4;whiteSpace=wrap;html=1;" parent="1" vertex="1">
          <mxGeometry x="30" y="130" width="200" height="200" as="geometry" />
        </mxCell>
        <mxCell id="p2FJRCKIppxcUD3lW_PI-15" value="first_name (string)&lt;div&gt;last_name (string)&lt;br&gt;&lt;div&gt;phone number (string)&lt;/div&gt;&lt;/div&gt;&lt;div&gt;email (string)&lt;/div&gt;&lt;div&gt;address (string)&lt;/div&gt;" style="align=left;strokeColor=none;fillColor=none;spacingLeft=4;spacingRight=4;fontSize=12;verticalAlign=top;resizable=0;rotatable=0;part=1;html=1;whiteSpace=wrap;" parent="p2FJRCKIppxcUD3lW_PI-14" vertex="1">
          <mxGeometry y="50" width="200" height="150" as="geometry" />
        </mxCell>
        <mxCell id="p2FJRCKIppxcUD3lW_PI-16" value="Flight" style="swimlane;childLayout=stackLayout;horizontal=1;startSize=50;horizontalStack=0;rounded=1;fontSize=14;fontStyle=0;strokeWidth=2;resizeParent=0;resizeLast=1;shadow=0;dashed=0;align=center;arcSize=4;whiteSpace=wrap;html=1;" parent="1" vertex="1">
          <mxGeometry x="310" y="120" width="240" height="190" as="geometry" />
        </mxCell>
        <mxCell id="p2FJRCKIppxcUD3lW_PI-17" value="number (string)&lt;div&gt;name&amp;nbsp; (string)&lt;/div&gt;&lt;div&gt;durationInMinutes&amp;nbsp; (integer)&lt;/div&gt;&lt;div&gt;distanceInMiles&amp;nbsp; (interger)&lt;/div&gt;&lt;div&gt;DepartureDate (dateTime)&lt;/div&gt;&lt;div&gt;ArrivalDate&amp;nbsp; (dateTime)&lt;/div&gt;&lt;div&gt;ArrivalAirport (id)&lt;/div&gt;&lt;div&gt;DepartureAirport(id)&lt;/div&gt;" style="align=left;strokeColor=none;fillColor=none;spacingLeft=4;spacingRight=4;fontSize=12;verticalAlign=top;resizable=0;rotatable=0;part=1;html=1;whiteSpace=wrap;" parent="p2FJRCKIppxcUD3lW_PI-16" vertex="1">
          <mxGeometry y="50" width="240" height="140" as="geometry" />
        </mxCell>
        <mxCell id="p2FJRCKIppxcUD3lW_PI-23" value="Airport" style="swimlane;childLayout=stackLayout;horizontal=1;startSize=50;horizontalStack=0;rounded=1;fontSize=14;fontStyle=0;strokeWidth=2;resizeParent=0;resizeLast=1;shadow=0;dashed=0;align=center;arcSize=4;whiteSpace=wrap;html=1;" parent="1" vertex="1">
          <mxGeometry x="270" y="410" width="160" height="170" as="geometry" />
        </mxCell>
        <mxCell id="p2FJRCKIppxcUD3lW_PI-24" value="name (string)&lt;div&gt;IATA CODE (string)&lt;br&gt;&lt;div&gt;city (string)&lt;/div&gt;&lt;div&gt;state (string)&lt;/div&gt;&lt;div&gt;country (string)&lt;/div&gt;&lt;div&gt;&lt;br&gt;&lt;/div&gt;&lt;/div&gt;" style="align=left;strokeColor=none;fillColor=none;spacingLeft=4;spacingRight=4;fontSize=12;verticalAlign=top;resizable=0;rotatable=0;part=1;html=1;whiteSpace=wrap;" parent="p2FJRCKIppxcUD3lW_PI-23" vertex="1">
          <mxGeometry y="50" width="160" height="120" as="geometry" />
        </mxCell>
        <mxCell id="p2FJRCKIppxcUD3lW_PI-25" value="Ticket" style="swimlane;childLayout=stackLayout;horizontal=1;startSize=50;horizontalStack=0;rounded=1;fontSize=14;fontStyle=0;strokeWidth=2;resizeParent=0;resizeLast=1;shadow=0;dashed=0;align=center;arcSize=4;whiteSpace=wrap;html=1;" parent="1" vertex="1">
          <mxGeometry x="250" y="-80" width="190" height="150" as="geometry" />
        </mxCell>
        <mxCell id="p2FJRCKIppxcUD3lW_PI-26" value="number (string)&lt;div&gt;price&amp;nbsp; &amp;nbsp;(double)&lt;/div&gt;&lt;div&gt;ConfirmationNumber (string)&lt;/div&gt;" style="align=left;strokeColor=none;fillColor=none;spacingLeft=4;spacingRight=4;fontSize=12;verticalAlign=top;resizable=0;rotatable=0;part=1;html=1;whiteSpace=wrap;" parent="p2FJRCKIppxcUD3lW_PI-25" vertex="1">
          <mxGeometry y="50" width="190" height="100" as="geometry" />
        </mxCell>
        <mxCell id="p2FJRCKIppxcUD3lW_PI-29" value="" style="edgeStyle=entityRelationEdgeStyle;fontSize=12;html=1;endArrow=ERmany;startArrow=ERone;rounded=0;startFill=0;" parent="1" source="p2FJRCKIppxcUD3lW_PI-14" target="p2FJRCKIppxcUD3lW_PI-25" edge="1">
          <mxGeometry width="100" height="100" relative="1" as="geometry">
            <mxPoint x="70" y="110" as="sourcePoint" />
            <mxPoint x="170" y="10" as="targetPoint" />
            <Array as="points">
              <mxPoint x="100" />
              <mxPoint x="100" y="10" />
            </Array>
          </mxGeometry>
        </mxCell>
        <mxCell id="p2FJRCKIppxcUD3lW_PI-37" value="purchases" style="edgeLabel;html=1;align=center;verticalAlign=middle;resizable=0;points=[];" parent="p2FJRCKIppxcUD3lW_PI-29" vertex="1" connectable="0">
          <mxGeometry x="0.2543" y="-1" relative="1" as="geometry">
            <mxPoint as="offset" />
          </mxGeometry>
        </mxCell>
        <mxCell id="p2FJRCKIppxcUD3lW_PI-30" value="" style="edgeStyle=entityRelationEdgeStyle;fontSize=12;html=1;endArrow=ERone;startArrow=ERmany;rounded=0;endFill=0;" parent="1" source="p2FJRCKIppxcUD3lW_PI-25" target="p2FJRCKIppxcUD3lW_PI-16" edge="1">
          <mxGeometry width="100" height="100" relative="1" as="geometry">
            <mxPoint x="490" y="60" as="sourcePoint" />
            <mxPoint x="590" y="-40" as="targetPoint" />
            <Array as="points">
              <mxPoint x="630" y="-140" />
              <mxPoint x="610" y="-140" />
              <mxPoint x="640" y="-150" />
            </Array>
          </mxGeometry>
        </mxCell>
        <mxCell id="p2FJRCKIppxcUD3lW_PI-38" value="Issued" style="edgeLabel;html=1;align=center;verticalAlign=middle;resizable=0;points=[];" parent="p2FJRCKIppxcUD3lW_PI-30" vertex="1" connectable="0">
          <mxGeometry x="0.0137" relative="1" as="geometry">
            <mxPoint as="offset" />
          </mxGeometry>
        </mxCell>
        <mxCell id="p2FJRCKIppxcUD3lW_PI-36" value="" style="edgeStyle=entityRelationEdgeStyle;fontSize=12;html=1;endArrow=ERmany;startArrow=ERmany;rounded=0;" parent="1" source="p2FJRCKIppxcUD3lW_PI-23" target="p2FJRCKIppxcUD3lW_PI-17" edge="1">
          <mxGeometry width="100" height="100" relative="1" as="geometry">
            <mxPoint x="550" y="495" as="sourcePoint" />
            <mxPoint x="593.04" y="154.98999999999978" as="targetPoint" />
            <Array as="points">
              <mxPoint x="1106" y="440" />
            </Array>
          </mxGeometry>
        </mxCell>
        <mxCell id="p2FJRCKIppxcUD3lW_PI-39" value="Arrives/depart at" style="edgeLabel;html=1;align=center;verticalAlign=middle;resizable=0;points=[];" parent="p2FJRCKIppxcUD3lW_PI-36" vertex="1" connectable="0">
          <mxGeometry x="0.0725" relative="1" as="geometry">
            <mxPoint as="offset" />
          </mxGeometry>
        </mxCell>
        <mxCell id="XCKuCyNPqBAEEhC9XRHw-3" value="Airline" style="swimlane;childLayout=stackLayout;horizontal=1;startSize=50;horizontalStack=0;rounded=1;fontSize=14;fontStyle=0;strokeWidth=2;resizeParent=0;resizeLast=1;shadow=0;dashed=0;align=center;arcSize=4;whiteSpace=wrap;html=1;" vertex="1" parent="1">
          <mxGeometry x="830" y="180" width="160" height="120" as="geometry" />
        </mxCell>
        <mxCell id="XCKuCyNPqBAEEhC9XRHw-4" value="name (string)&lt;div&gt;code (string)&lt;/div&gt;" style="align=left;strokeColor=none;fillColor=none;spacingLeft=4;spacingRight=4;fontSize=12;verticalAlign=top;resizable=0;rotatable=0;part=1;html=1;whiteSpace=wrap;" vertex="1" parent="XCKuCyNPqBAEEhC9XRHw-3">
          <mxGeometry y="50" width="160" height="70" as="geometry" />
        </mxCell>
        <mxCell id="XCKuCyNPqBAEEhC9XRHw-5" value="" style="edgeStyle=entityRelationEdgeStyle;fontSize=12;html=1;endArrow=ERone;startArrow=ERmany;rounded=0;endFill=0;" edge="1" parent="1" source="p2FJRCKIppxcUD3lW_PI-17" target="XCKuCyNPqBAEEhC9XRHw-3">
          <mxGeometry width="100" height="100" relative="1" as="geometry">
            <mxPoint x="690" y="390" as="sourcePoint" />
            <mxPoint x="790" y="290" as="targetPoint" />
          </mxGeometry>
        </mxCell>
        <mxCell id="XCKuCyNPqBAEEhC9XRHw-6" value="Operate" style="edgeLabel;html=1;align=center;verticalAlign=middle;resizable=0;points=[];" vertex="1" connectable="0" parent="XCKuCyNPqBAEEhC9XRHw-5">
          <mxGeometry x="0.1071" y="2" relative="1" as="geometry">
            <mxPoint as="offset" />
          </mxGeometry>
        </mxCell>
        <mxCell id="XCKuCyNPqBAEEhC9XRHw-7" value="Class" style="swimlane;childLayout=stackLayout;horizontal=1;startSize=50;horizontalStack=0;rounded=1;fontSize=14;fontStyle=0;strokeWidth=2;resizeParent=0;resizeLast=1;shadow=0;dashed=0;align=center;arcSize=4;whiteSpace=wrap;html=1;" vertex="1" parent="1">
          <mxGeometry x="250" y="-310" width="160" height="120" as="geometry" />
        </mxCell>
        <mxCell id="XCKuCyNPqBAEEhC9XRHw-8" value="name" style="align=left;strokeColor=none;fillColor=none;spacingLeft=4;spacingRight=4;fontSize=12;verticalAlign=top;resizable=0;rotatable=0;part=1;html=1;whiteSpace=wrap;" vertex="1" parent="XCKuCyNPqBAEEhC9XRHw-7">
          <mxGeometry y="50" width="160" height="70" as="geometry" />
        </mxCell>
        <mxCell id="XCKuCyNPqBAEEhC9XRHw-9" value="" style="edgeStyle=entityRelationEdgeStyle;fontSize=12;html=1;endArrow=ERone;startArrow=ERmany;rounded=0;endFill=0;" edge="1" parent="1" source="p2FJRCKIppxcUD3lW_PI-25" target="XCKuCyNPqBAEEhC9XRHw-7">
          <mxGeometry width="100" height="100" relative="1" as="geometry">
            <mxPoint x="380" y="-90" as="sourcePoint" />
            <mxPoint x="590" y="-230" as="targetPoint" />
            <Array as="points">
              <mxPoint x="740" y="-410" />
              <mxPoint x="690" y="-370" />
            </Array>
          </mxGeometry>
        </mxCell>
        <mxCell id="XCKuCyNPqBAEEhC9XRHw-10" value="Issued" style="edgeLabel;html=1;align=center;verticalAlign=middle;resizable=0;points=[];" vertex="1" connectable="0" parent="XCKuCyNPqBAEEhC9XRHw-9">
          <mxGeometry x="-0.003" y="2" relative="1" as="geometry">
            <mxPoint as="offset" />
          </mxGeometry>
        </mxCell>
      </root>
    </mxGraphModel>
  </diagram>
</mxfile>
